<?xml version="1.0" encoding="UTF-8" standalone="no"?>
<!DOCTYPE svg PUBLIC "-//W3C//DTD SVG 1.1//EN"
 "http://www.w3.org/Graphics/SVG/1.1/DTD/svg11.dtd">
<!-- Generated by graphviz version 9.0.0 (0)
 -->
<!-- Title: DCEL Pages: 1 -->
<svg width="53pt" height="192pt"
 viewBox="0.00 0.00 52.90 192.03" xmlns="http://www.w3.org/2000/svg" xmlns:xlink="http://www.w3.org/1999/xlink">
<g id="graph0" class="graph" transform="scale(1 1) rotate(0) translate(4 188.03)">
<title>DCEL</title>
<polygon fill="white" stroke="none" points="-4,4 -4,-188.03 48.9,-188.03 48.9,4 -4,4"/>
<!-- 0 -->
<g id="node1" class="node">
<title>0</title>
<ellipse fill="none" stroke="black" cx="22.15" cy="-166.03" rx="18" ry="18"/>
<text text-anchor="middle" x="22.15" y="-160.98" font-family="Times,serif" font-size="14.00">0</text>
</g>
<!-- edge_0 -->
<g id="node3" class="node">
<title>edge_0</title>
<ellipse fill="black" stroke="black" cx="1.15" cy="-95.17" rx="0.36" ry="0.36"/>
</g>
<!-- 0&#45;&gt;edge_0 -->
<g id="edge1" class="edge">
<title>0&#45;&gt;edge_0</title>
<path fill="none" stroke="black" d="M17.18,-148.56C11.36,-129.29 2.37,-99.54 1.27,-95.9"/>
<text text-anchor="middle" x="14.53" y="-116.73" font-family="Times,serif" font-size="14.00">0</text>
</g>
<!-- 1 -->
<g id="node2" class="node">
<title>1</title>
<ellipse fill="none" stroke="black" cx="21.15" cy="-21.15" rx="21.15" ry="21.15"/>
<text text-anchor="middle" x="21.15" y="-16.1" font-family="Times,serif" font-size="14.00">far</text>
</g>
<!-- edge_1 -->
<g id="node4" class="node">
<title>edge_1</title>
<ellipse fill="black" stroke="black" cx="43.15" cy="-95.17" rx="0.36" ry="0.36"/>
</g>
<!-- 1&#45;&gt;edge_1 -->
<g id="edge3" class="edge">
<title>1&#45;&gt;edge_1</title>
<path fill="none" stroke="black" d="M27.13,-41.89C33.18,-61.87 41.81,-90.38 43.01,-94.35"/>
<text text-anchor="middle" x="41.53" y="-63.51" font-family="Times,serif" font-size="14.00">1</text>
</g>
<!-- edge_0&#45;&gt;1 -->
<g id="edge2" class="edge">
<title>edge_0&#45;&gt;1</title>
<path fill="none" stroke="black" d="M1.28,-94.35C2.19,-91.06 7.72,-70.95 12.72,-52.78"/>
<polygon fill="black" stroke="black" points="16.04,-53.92 15.32,-43.35 9.29,-52.06 16.04,-53.92"/>
</g>
<!-- edge_0&#45;&gt;edge_1 -->
<g id="edge5" class="edge">
<title>edge_0&#45;&gt;edge_1</title>
<path fill="none" stroke="red" d="M13.27,-95.17C18.92,-95.17 25.62,-95.17 31.24,-95.17"/>
<polygon fill="red" stroke="red" points="13.4,-91.67 3.4,-95.17 13.4,-98.67 13.4,-91.67"/>
<polygon fill="red" stroke="red" points="31.24,-98.67 41.24,-95.17 31.24,-91.67 31.24,-98.67"/>
<text text-anchor="middle" x="22.15" y="-101.37" font-family="Times,serif" font-size="14.00">twin</text>
</g>
<!-- edge_0&#45;&gt;edge_1 -->
<g id="edge6" class="edge">
<title>edge_0&#45;&gt;edge_1</title>
<path fill="none" stroke="green" d="M1.22,-94.54C1.57,-91.72 3.41,-80.15 10.53,-75.67 19.28,-70.17 25.03,-70.17 33.78,-75.67 36.67,-77.49 38.69,-80.48 40.1,-83.58"/>
<polygon fill="green" stroke="green" points="36.68,-84.35 42.69,-93.08 43.44,-82.51 36.68,-84.35"/>
<text text-anchor="middle" x="22.15" y="-78.87" font-family="Times,serif" font-size="14.00">next</text>
</g>
<!-- edge_1&#45;&gt;0 -->
<g id="edge4" class="edge">
<title>edge_1&#45;&gt;0</title>
<path fill="none" stroke="black" d="M43.04,-95.9C42.14,-98.9 35.87,-119.64 30.44,-137.63"/>
<polygon fill="black" stroke="black" points="27.11,-136.53 27.57,-147.11 33.81,-138.55 27.11,-136.53"/>
</g>
<!-- edge_1&#45;&gt;edge_0 -->
<g id="edge7" class="edge">
<title>edge_1&#45;&gt;edge_0</title>
<path fill="none" stroke="green" d="M43.1,-95.8C42.8,-98.61 41.19,-110.17 34.15,-114.67 25.17,-120.42 19.14,-120.42 10.15,-114.67 7.3,-112.84 5.33,-109.85 3.99,-106.75"/>
<polygon fill="green" stroke="green" points="7.43,-106.1 1.58,-97.26 0.65,-107.82 7.43,-106.1"/>
<text text-anchor="middle" x="22.15" y="-123.87" font-family="Times,serif" font-size="14.00">next</text>
</g>
</g>
</svg>
