<?xml version="1.0" encoding="UTF-8" standalone="no"?>
<!DOCTYPE svg PUBLIC "-//W3C//DTD SVG 1.1//EN"
 "http://www.w3.org/Graphics/SVG/1.1/DTD/svg11.dtd">
<!-- Generated by graphviz version 9.0.0 (0)
 -->
<!-- Title: DCEL Pages: 1 -->
<svg width="692pt" height="263pt"
 viewBox="0.00 0.00 692.00 263.00" xmlns="http://www.w3.org/2000/svg" xmlns:xlink="http://www.w3.org/1999/xlink">
<g id="graph0" class="graph" transform="scale(1 1) rotate(0) translate(4 259)">
<title>DCEL</title>
<polygon fill="white" stroke="none" points="-4,4 -4,-259 688,-259 688,4 -4,4"/>
<!-- 0 -->
<g id="node1" class="node">
<title>0</title>
<ellipse fill="none" stroke="black" cx="18" cy="-21" rx="18" ry="18"/>
<text text-anchor="middle" x="18" y="-15.95" font-family="Times,serif" font-size="14.00">S</text>
</g>
<!-- edge_0 -->
<g id="node6" class="node">
<title>edge_0</title>
<ellipse fill="black" stroke="black" cx="126" cy="-35.4" rx="0.36" ry="0.36"/>
</g>
<!-- 0&#45;&gt;edge_0 -->
<g id="edge1" class="edge">
<title>0&#45;&gt;edge_0</title>
<path fill="none" stroke="black" d="M36.32,-23.44C65.21,-27.29 118.75,-34.43 125.33,-35.31"/>
</g>
<!-- edge_7 -->
<g id="node13" class="node">
<title>edge_7</title>
<ellipse fill="black" stroke="black" cx="3.6" cy="-129" rx="0.36" ry="0.36"/>
</g>
<!-- 0&#45;&gt;edge_7 -->
<g id="edge22" class="edge">
<title>0&#45;&gt;edge_7</title>
<path fill="none" stroke="black" d="M15.56,-39.32C11.71,-68.21 4.57,-121.75 3.69,-128.33"/>
</g>
<!-- 1 -->
<g id="node2" class="node">
<title>1</title>
<ellipse fill="none" stroke="black" cx="666" cy="-21" rx="18" ry="18"/>
<text text-anchor="middle" x="666" y="-15.95" font-family="Times,serif" font-size="14.00">E</text>
</g>
<!-- edge_3 -->
<g id="node10" class="node">
<title>edge_3</title>
<ellipse fill="black" stroke="black" cx="558" cy="-6.6" rx="0.36" ry="0.36"/>
</g>
<!-- 1&#45;&gt;edge_3 -->
<g id="edge10" class="edge">
<title>1&#45;&gt;edge_3</title>
<path fill="none" stroke="black" d="M647.68,-18.56C618.79,-14.71 565.25,-7.57 558.67,-6.69"/>
</g>
<!-- 2 -->
<g id="node3" class="node">
<title>2</title>
<ellipse fill="none" stroke="black" cx="450" cy="-21" rx="20.64" ry="20.64"/>
<text text-anchor="middle" x="450" y="-15.95" font-family="Times,serif" font-size="14.00">P1</text>
</g>
<!-- edge_2 -->
<g id="node9" class="node">
<title>edge_2</title>
<ellipse fill="black" stroke="black" cx="558" cy="-35.4" rx="0.36" ry="0.36"/>
</g>
<!-- 2&#45;&gt;edge_2 -->
<g id="edge7" class="edge">
<title>2&#45;&gt;edge_2</title>
<path fill="none" stroke="black" d="M470.82,-23.78C500.25,-27.7 551.12,-34.48 557.37,-35.32"/>
</g>
<!-- edge_5 -->
<g id="node11" class="node">
<title>edge_5</title>
<ellipse fill="black" stroke="black" cx="342" cy="-6.6" rx="0.36" ry="0.36"/>
</g>
<!-- 2&#45;&gt;edge_5 -->
<g id="edge16" class="edge">
<title>2&#45;&gt;edge_5</title>
<path fill="none" stroke="black" d="M429.18,-18.22C399.75,-14.3 348.88,-7.52 342.63,-6.68"/>
</g>
<!-- 3 -->
<g id="node4" class="node">
<title>3</title>
<ellipse fill="none" stroke="black" cx="234" cy="-21" rx="20.64" ry="20.64"/>
<text text-anchor="middle" x="234" y="-15.95" font-family="Times,serif" font-size="14.00">P2</text>
</g>
<!-- edge_4 -->
<g id="node7" class="node">
<title>edge_4</title>
<ellipse fill="black" stroke="black" cx="342" cy="-35.4" rx="0.36" ry="0.36"/>
</g>
<!-- 3&#45;&gt;edge_4 -->
<g id="edge13" class="edge">
<title>3&#45;&gt;edge_4</title>
<path fill="none" stroke="black" d="M254.82,-23.78C284.25,-27.7 335.12,-34.48 341.37,-35.32"/>
</g>
<!-- edge_1 -->
<g id="node8" class="node">
<title>edge_1</title>
<ellipse fill="black" stroke="black" cx="126" cy="-6.6" rx="0.36" ry="0.36"/>
</g>
<!-- 3&#45;&gt;edge_1 -->
<g id="edge4" class="edge">
<title>3&#45;&gt;edge_1</title>
<path fill="none" stroke="black" d="M213.18,-18.22C183.75,-14.3 132.88,-7.52 126.63,-6.68"/>
</g>
<!-- 4 -->
<g id="node5" class="node">
<title>4</title>
<ellipse fill="none" stroke="black" cx="18" cy="-237" rx="18" ry="18"/>
<text text-anchor="middle" x="18" y="-231.95" font-family="Times,serif" font-size="14.00">B</text>
</g>
<!-- edge_6 -->
<g id="node12" class="node">
<title>edge_6</title>
<ellipse fill="black" stroke="black" cx="32.4" cy="-129" rx="0.36" ry="0.36"/>
</g>
<!-- 4&#45;&gt;edge_6 -->
<g id="edge19" class="edge">
<title>4&#45;&gt;edge_6</title>
<path fill="none" stroke="black" d="M20.44,-218.68C24.29,-189.79 31.43,-136.25 32.31,-129.67"/>
</g>
<!-- edge_0&#45;&gt;3 -->
<g id="edge2" class="edge">
<title>edge_0&#45;&gt;3</title>
<path fill="none" stroke="black" d="M126.69,-35.31C132.43,-34.54 172.81,-29.16 202.35,-25.22"/>
<polygon fill="black" stroke="black" points="202.49,-28.73 211.94,-23.94 201.56,-21.79 202.49,-28.73"/>
<text text-anchor="middle" x="161.15" y="-33.46" font-family="Times,serif" font-size="14.00">0</text>
</g>
<!-- edge_0&#45;&gt;edge_4 -->
<g id="edge3" class="edge">
<title>edge_0&#45;&gt;edge_4</title>
<path fill="none" stroke="green" d="M126.62,-35.4C137.43,-35.4 286.63,-35.4 330.16,-35.4"/>
<polygon fill="green" stroke="green" points="329.9,-38.9 339.9,-35.4 329.9,-31.9 329.9,-38.9"/>
</g>
<!-- edge_4&#45;&gt;2 -->
<g id="edge14" class="edge">
<title>edge_4&#45;&gt;2</title>
<path fill="none" stroke="black" d="M342.69,-35.31C348.43,-34.54 388.81,-29.16 418.35,-25.22"/>
<polygon fill="black" stroke="black" points="418.49,-28.73 427.94,-23.94 417.56,-21.79 418.49,-28.73"/>
<text text-anchor="middle" x="377.15" y="-33.46" font-family="Times,serif" font-size="14.00">4</text>
</g>
<!-- edge_4&#45;&gt;edge_3 -->
<g id="edge15" class="edge">
<title>edge_4&#45;&gt;edge_3</title>
<path fill="none" stroke="green" d="M342.62,-35.32C353.43,-33.88 502.63,-13.98 546.16,-8.18"/>
<polygon fill="green" stroke="green" points="546.47,-11.67 555.92,-6.88 545.54,-4.73 546.47,-11.67"/>
</g>
<!-- edge_1&#45;&gt;0 -->
<g id="edge5" class="edge">
<title>edge_1&#45;&gt;0</title>
<path fill="none" stroke="black" d="M125.31,-6.69C119.41,-7.48 76.93,-13.14 47.22,-17.1"/>
<polygon fill="black" stroke="black" points="47.13,-13.58 37.68,-18.38 48.06,-20.52 47.13,-13.58"/>
<text text-anchor="middle" x="82.89" y="-15.1" font-family="Times,serif" font-size="14.00">1</text>
</g>
<!-- edge_1&#45;&gt;edge_0 -->
<g id="edge6" class="edge">
<title>edge_1&#45;&gt;edge_0</title>
<path fill="none" stroke="green" d="M126,-7.31C126,-9.57 126,-16.83 126,-23.4"/>
<polygon fill="green" stroke="green" points="122.5,-23.3 126,-33.3 129.5,-23.3 122.5,-23.3"/>
</g>
<!-- edge_2&#45;&gt;1 -->
<g id="edge8" class="edge">
<title>edge_2&#45;&gt;1</title>
<path fill="none" stroke="black" d="M558.69,-35.31C564.59,-34.52 607.07,-28.86 636.78,-24.9"/>
<polygon fill="black" stroke="black" points="636.87,-28.42 646.32,-23.62 635.94,-21.48 636.87,-28.42"/>
<text text-anchor="middle" x="594.36" y="-33.3" font-family="Times,serif" font-size="14.00">2</text>
</g>
<!-- edge_2&#45;&gt;edge_1 -->
<g id="edge9" class="edge">
<title>edge_2&#45;&gt;edge_1</title>
<path fill="none" stroke="green" d="M557.3,-35.35C539.95,-34.2 205.69,-11.91 137.92,-7.39"/>
<polygon fill="green" stroke="green" points="138.39,-3.92 128.18,-6.75 137.92,-10.9 138.39,-3.92"/>
</g>
<!-- edge_3&#45;&gt;2 -->
<g id="edge11" class="edge">
<title>edge_3&#45;&gt;2</title>
<path fill="none" stroke="black" d="M557.31,-6.69C551.57,-7.46 511.19,-12.84 481.65,-16.78"/>
<polygon fill="black" stroke="black" points="481.51,-13.27 472.06,-18.06 482.44,-20.21 481.51,-13.27"/>
<text text-anchor="middle" x="516.1" y="-14.94" font-family="Times,serif" font-size="14.00">3</text>
</g>
<!-- edge_3&#45;&gt;edge_5 -->
<g id="edge12" class="edge">
<title>edge_3&#45;&gt;edge_5</title>
<path fill="none" stroke="green" d="M557.38,-6.6C546.57,-6.6 397.37,-6.6 353.84,-6.6"/>
<polygon fill="green" stroke="green" points="354.1,-3.1 344.1,-6.6 354.1,-10.1 354.1,-3.1"/>
</g>
<!-- edge_5&#45;&gt;3 -->
<g id="edge17" class="edge">
<title>edge_5&#45;&gt;3</title>
<path fill="none" stroke="black" d="M341.31,-6.69C335.57,-7.46 295.19,-12.84 265.65,-16.78"/>
<polygon fill="black" stroke="black" points="265.51,-13.27 256.06,-18.06 266.44,-20.21 265.51,-13.27"/>
<text text-anchor="middle" x="300.1" y="-14.94" font-family="Times,serif" font-size="14.00">5</text>
</g>
<!-- edge_5&#45;&gt;edge_1 -->
<g id="edge18" class="edge">
<title>edge_5&#45;&gt;edge_1</title>
<path fill="none" stroke="green" d="M341.38,-6.6C330.57,-6.6 181.37,-6.6 137.84,-6.6"/>
<polygon fill="green" stroke="green" points="138.1,-3.1 128.1,-6.6 138.1,-10.1 138.1,-3.1"/>
</g>
<!-- edge_6&#45;&gt;0 -->
<g id="edge20" class="edge">
<title>edge_6&#45;&gt;0</title>
<path fill="none" stroke="black" d="M32.31,-128.31C31.52,-122.41 25.86,-79.93 21.9,-50.22"/>
<polygon fill="black" stroke="black" points="25.42,-50.13 20.62,-40.68 18.48,-51.06 25.42,-50.13"/>
<text text-anchor="middle" x="23.73" y="-92.47" font-family="Times,serif" font-size="14.00">6</text>
</g>
<!-- edge_6&#45;&gt;edge_7 -->
<g id="edge21" class="edge">
<title>edge_6&#45;&gt;edge_7</title>
<path fill="none" stroke="green" d="M32.32,-128.18C31.32,-123.36 21.49,-121.48 13.61,-122.54"/>
<polygon fill="green" stroke="green" points="11.94,-119.46 4.99,-127.46 15.41,-125.54 11.94,-119.46"/>
</g>
<!-- edge_7&#45;&gt;4 -->
<g id="edge23" class="edge">
<title>edge_7&#45;&gt;4</title>
<path fill="none" stroke="black" d="M3.69,-129.69C4.48,-135.59 10.14,-178.07 14.1,-207.78"/>
<polygon fill="black" stroke="black" points="10.58,-207.87 15.38,-217.32 17.52,-206.94 10.58,-207.87"/>
<text text-anchor="middle" x="5.52" y="-171.93" font-family="Times,serif" font-size="14.00">7</text>
</g>
<!-- edge_7&#45;&gt;edge_6 -->
<g id="edge24" class="edge">
<title>edge_7&#45;&gt;edge_6</title>
<path fill="none" stroke="green" d="M3.68,-129.82C4.68,-134.64 14.51,-136.52 22.39,-135.46"/>
<polygon fill="green" stroke="green" points="24.06,-138.54 31.01,-130.54 20.59,-132.46 24.06,-138.54"/>
</g>
</g>
</svg>
